<svg xmlns="http://www.w3.org/2000/svg" xmlns:xlink="http://www.w3.org/1999/xlink" id="Layer_1" x="0px" y="0px" width="1297.246px" height="514.666px" viewBox="0 0 1297.246 514.666" xml:space="preserve"><g>	<path fill="#FFFFFF" d="M60.328,351.479c4.041-0.09,8.13-0.295,12.258-0.648c14.282-1.375,28.26-4.811,41.938-10.321  c13.684-5.507,26.021-12.903,37.038-22.204c6.707-5.5,12.814-11.522,18.323-18.066c5.503-6.534,10.667-13.378,15.485-20.518  c4.812-7.14,9.379-14.5,13.678-22.077c4.3-7.566,8.428-15.138,12.388-22.714c3.443-6.36,6.971-12.688,10.58-18.969  c3.614-6.28,11.007-21.503,15.054-29.501c4.041-8.003,6.507-17.261,12.534-23.806c10.175-11.775,18.489-13.425,19.354-14.974  c1.035-2.234,0.987-3.651-0.13-4.258c-1.116-0.601-2.579-0.774-4.386-0.517c-1.808,0.259-27.749,4.779-56.652,33.69  c-8.946,8.952-24.787,34.591-29,40.781c-4.221,6.196-8.046,12.562-11.483,19.101c-2.411,4.136-4.608,8.352-6.581,12.65  c-1.981,4.305-4.176,8.515-6.584,12.65c-3.44,6.191-7.055,12.43-10.838,18.711c-3.788,6.285-7.872,12.35-12.259,18.198  c-4.386,5.854-9.162,11.36-14.326,16.524c-5.163,5.163-10.672,9.721-16.521,13.678c-6.02,3.962-12.475,6.971-19.353,9.036  c-6.884,2.065-13.854,3.446-20.907,4.131c-2.06,0.174-4.299,0.174-6.705,0c-2.413-0.174-4.776-0.554-7.103-1.164  c-2.318-0.601-4.476-1.502-6.452-2.708c-1.981-1.207-3.572-2.751-4.773-4.647c-0.864-1.376-1.249-2.751-1.162-4.131  c0.087-1.37,0.427-2.708,1.03-3.999c0.606-1.291,1.333-2.535,2.197-3.746c0.859-1.202,1.633-2.403,2.321-3.615  c1.202-2.061,1.763-4.257,1.676-6.581c-0.084-2.318-0.604-4.604-1.546-6.839c-0.946-2.234-2.321-4.168-4.128-5.807  s-3.744-2.798-5.806-3.488c-2.756-0.858-5.809-0.9-9.16-0.126c-3.356,0.774-5.983,2.281-7.872,4.521  c-1.728,2.061-3.146,4.516-4.263,7.351c-1.117,2.84-1.802,5.812-2.06,8.909c-0.261,3.099-0.131,6.149,0.382,9.163  c0.519,3.009,1.462,5.638,2.842,7.872c1.889,2.93,4.387,5.464,7.485,7.619c3.095,2.149,6.193,3.909,9.289,5.284  c7.227,2.756,14.537,4.479,21.94,5.164C52.195,351.441,56.281,351.562,60.328,351.479"></path>	<path fill="#FFFFFF" d="M366.053,282.297c0.166-1.285,0.728-2.882,1.679-4.773c0.938-1.892,1.973-3.693,3.096-5.422  c1.117-1.718,1.847-2.84,2.191-3.356c2.41-3.609,4.905-7.097,7.49-10.453c2.579-3.352,5.242-6.755,8.001-10.196  c0.855-1.027,1.807-2.102,2.837-3.225c1.035-1.116,2.065-2.275,3.098-3.487c1.376-1.375,3.096-3.051,5.161-5.032  c2.068-1.976,4.134-3.225,6.196-3.746c1.547-0.337,2.793,0.132,3.744,1.428c0.943,1.286,1.333,2.619,1.159,3.994  c-0.171,3.451-1.201,6.808-3.096,10.068c-1.895,3.272-3.87,6.197-5.936,8.778c-3.443,4.474-7.36,8.773-11.747,12.909  c-4.387,4.126-9.078,7.656-14.065,10.58c-0.351,0.174-1.339,0.69-2.972,1.549c-1.636,0.859-3.141,1.465-4.516,1.808  C366.652,284.067,365.875,283.588,366.053,282.297 M437.553,272.876c-0.519-2.402-1.288-3.482-2.326-3.225  c-1.03,0.259-2.06,1.122-3.096,2.577c-1.03,1.47-2.023,3.098-2.969,4.905c-0.948,1.807-1.591,2.966-1.937,3.487  c-4.125,6.028-8.562,11.961-13.288,17.81c-4.737,5.854-9.598,11.528-14.59,17.04c-2.061,2.413-4.342,4.773-6.842,7.098  c-2.492,2.323-5.119,4.431-7.872,6.327c-2.75,1.892-5.675,3.44-8.772,4.643c-3.101,1.206-6.286,1.807-9.556,1.807  c-3.44,0-6.193-0.647-8.259-1.934c-2.062-1.291-3.659-3.056-4.776-5.295c-1.122-2.234-1.721-4.689-1.807-7.355  c-0.088-2.666,0.303-5.38,1.166-8.13c1.202-4.3,2.709-7.783,4.516-10.454c1.808-2.666,3.912-4.863,6.323-6.586  c2.41-1.713,5.2-3.183,8.391-4.384c3.183-1.201,6.75-2.587,10.715-4.137c3.438-1.375,7.397-3.093,11.87-5.158  c4.472-2.065,8.908-4.521,13.294-7.355c4.392-2.84,8.521-5.943,12.393-9.294c3.87-3.351,6.966-6.971,9.292-10.844  c2.323-3.867,3.651-7.998,4.002-12.388c0.34-4.389-0.777-8.904-3.354-13.551c-2.414-4.474-7.664-6.281-15.752-5.422  c-7.4,0.863-14.669,2.797-21.813,5.812c-7.137,3.009-13.721,6.665-19.745,10.964c-9.811,6.887-18.194,14.933-25.165,24.138  c-6.971,9.21-12.777,19.147-17.427,29.812c-0.061,0.137-0.119,0.295-0.18,0.422c-0.89,1.148-1.752,2.323-2.658,3.456  c-6.712,8.604-13.943,16.345-21.684,23.231c-1.895,1.549-3.87,3.098-5.936,4.646c-2.068,1.544-4.047,3.009-5.936,4.385  c-1.899,1.38-4.005,2.629-6.328,3.746c-2.321,1.122-4.689,1.248-7.095,0.385c-0.353-3.099,0.208-6.328,1.676-9.686  c1.456-3.346,3.051-6.322,4.776-8.898c1.889-2.925,3.825-5.812,5.806-8.652c1.974-2.834,3.91-5.717,5.81-8.646  c2.408-3.956,4.776-7.781,7.095-11.486c2.326-3.698,4.689-7.523,7.103-11.48c1.715-3.271,3.78-6.929,6.193-10.976  c2.405-4.041,4.342-8.22,5.809-12.519c1.457-4.3,2.105-8.557,1.935-12.777c-0.174-4.215-1.895-8.13-5.159-11.744  c-2.067-2.234-4.652-3.615-7.747-4.131c-3.099-0.517-6.109-0.602-9.034-0.254c-2.065,0.343-4.176,0.639-6.322,0.901  c-2.152,0.259-4.176,0.817-6.07,1.676c-3.096,1.201-6.151,2.751-9.16,4.647c-3.017,1.896-5.898,3.872-8.648,5.933  c-0.514,0.353-1.03,0.737-1.55,1.164c-0.519,0.433-1.122,0.817-1.807,1.159c-0.346,0.348-0.69,0.695-1.03,1.033  c-0.346,0.353-0.777,0.69-1.291,1.038c0-0.348,0.169-0.686,0.514-1.038c2.75-4.984,51.375-84.44,52.924-87.791  c1.552-3.356,1.808-6.75,0.777-10.201c-0.174-0.511-0.432-0.943-0.777-1.291c-0.345-0.337-1.117-0.517-2.32-0.517  c-1.21,0-22.204,2.065-23.233,2.065c-2.93,0-4.688,0.217-5.293,0.648c-0.604,0.432-1.072,1.591-1.417,3.488  c-0.346,1.718-0.772,3.398-1.291,5.031c-0.52,1.634-1.21,3.314-2.065,5.027c-2.239,5-96.896,160.461-102.745,169.76  c-1.889,2.925-3.654,5.934-5.287,9.031c-1.637,3.099-3.314,6.191-5.035,9.295c-0.863,1.375-1.246,2.924-1.167,4.646  c0.093,1.718,0.562,2.751,1.421,3.099c2.064,0.517,4.133,0.77,6.198,0.77c2.579,0.174,5.164,0.216,7.743,0.132  c2.584-0.09,5.163-0.307,7.742-0.644c0.864-0.174,1.808-0.348,2.843-0.521c1.03-0.163,1.976-0.421,2.84-0.774  c0.34-0.169,0.512-0.295,0.512-0.385c0-0.084,0.174-0.216,0.519-0.385c0.345-0.348,0.728-0.732,1.159-1.164l1.164-1.164  c1.718-2.234,3.007-4.601,3.87-7.093c0.861-2.492,1.979-4.947,3.356-7.36c1.035-1.892,2.107-3.746,3.225-5.549  c1.117-1.807,2.284-3.656,3.485-5.548c3.963-6.544,8.046-12.951,12.264-19.231c4.215-6.281,8.391-12.688,12.52-19.232  c1.035-1.891,2.152-3.614,3.355-5.163c1.202-1.549,2.406-3.183,3.615-4.899c3.44-4.653,6.921-9.205,10.456-13.684  c3.522-4.474,7.526-8.431,12-11.877c0.861-0.685,2.363-1.76,4.521-3.225c2.147-1.459,4.424-2.756,6.837-3.878  c2.41-1.116,4.649-1.755,6.71-1.929c2.068-0.174,3.53,0.77,4.392,2.835c1.198,2.93,1.032,5.985-0.517,9.163  c-1.549,3.188-2.93,5.985-4.133,8.388c-3.789,6.887-7.914,13.468-12.388,19.748c-4.479,6.286-8.691,12.777-12.648,19.49  c-1.899,3.446-4.392,7.577-7.487,12.393c-3.098,4.821-5.596,9.769-7.484,14.843c-1.899,5.079-2.497,9.853-1.807,14.326  c0.685,4.479,3.875,8.088,9.55,10.838c0.858,0.354,1.636,0.606,2.326,0.78c0.685,0.169,1.375,0.337,2.06,0.517  c3.443,0.858,7.014,0.938,10.715,0.253c3.696-0.686,7.01-1.718,9.939-3.099c6.021-3.098,11.616-6.971,16.779-11.612  c5.158-4.647,10.063-9.295,14.714-13.937c0.685-0.686,1.288-1.333,1.807-1.939c0.515-0.601,1.117-1.333,1.803-2.197  c1.693-1.817,3.29-3.688,4.884-5.563c-0.579,2.851-0.993,5.695-1.141,8.536c-0.253,5.078,0.477,9.853,2.197,14.326  c1.715,4.479,5.071,8.172,10.069,11.096c3.78,2.239,7.913,3.53,12.387,3.878c3.96,0.512,7.785,0.47,11.486-0.132  c3.702-0.605,7.358-1.591,10.976-2.966c6.879-2.751,13.114-6.365,18.71-10.844c5.591-4.474,10.715-9.379,15.361-14.716  c4.645-5.327,9.073-10.923,13.294-16.776c4.213-5.849,8.557-11.528,13.035-17.035c1.715-2.065,3.651-4.604,5.807-7.618  C437.511,278.777,438.238,275.806,437.553,272.876"></path>	<path fill="#FFFFFF" d="M712.345,269.794c-4.299,7.745-8.941,15.195-13.931,22.33c-4.995,7.14-10.243,14.152-15.744,21.038  c-3.277,3.963-6.765,7.704-10.459,11.229c-3.704,3.53-7.871,6.412-12.524,8.646c-2.75,1.207-5.247,1.597-7.481,1.164  c-2.239-0.426-4.047-2.107-5.422-5.037c-0.864-1.717-1.159-3.572-0.901-5.548c0.259-1.976,0.728-3.999,1.418-6.064  c0.688-2.071,1.507-4.041,2.45-5.938c0.95-1.892,1.765-3.614,2.455-5.163c1.896-3.614,3.783-7.14,5.68-10.585  c1.887-3.436,3.957-6.792,6.196-10.069c2.234-3.262,4.384-6.534,6.449-9.806c2.071-3.267,4.3-6.455,6.713-9.553  c4.131-5.675,8.651-11.523,13.552-17.551c4.911-6.022,10.454-10.754,16.649-14.194c2.234-1.202,4.9-2.155,8.01-2.846  c3.093-0.685,5.585,0.179,7.481,2.587c1.549,2.065,2.103,4.384,1.676,6.971c-0.433,2.577-0.991,4.99-1.676,7.225  c-1.381,3.788-3.014,7.402-4.905,10.843C716.139,262.918,714.242,266.358,712.345,269.794 M916.375,219.443  c-1.902,0-3.614,0.217-5.164,0.648c-1.544,0.432-3.271,0.732-5.163,0.9c-2.239,0.175-4.432,0.217-6.581,0.133  c-2.149-0.09-4.353,0.216-6.586,0.9c-2.234,0.69-3.994,1.676-5.29,2.972c-1.286,1.291-2.624,2.882-3.994,4.773  c-3.272,4.3-6.328,8.646-9.168,13.036c-2.84,4.389-5.807,8.735-8.904,13.035c-3.615,4.989-7.229,9.938-10.844,14.843  s-7.397,9.769-11.36,14.584c-3.608,4.479-7.397,8.905-11.359,13.294c-3.957,4.389-7.824,8.82-11.613,13.293  c-2.75,3.272-5.543,6.413-8.388,9.422c-2.045,2.165-4.421,4.088-6.776,6.032c-0.553,0.327-1.038,0.754-1.612,1.064  c-2.576,1.381-4.989,2.155-7.229,2.323c-2.234,0.174-4.126-0.258-5.675-1.29c-1.549-1.033-2.671-2.582-3.356-4.643  c-0.69-2.07-0.601-4.562,0.258-7.492c0.859-3.778,2.234-7.397,4.126-10.838c1.897-3.44,47.157-74.425,55.251-87.507  c1.712-2.925,3.604-5.459,5.669-7.614c2.065-2.149,4.91-3.225,8.525-3.225c2.576-0.169,5.374-0.047,8.388,0.385  c3.009,0.433,5.717-0.042,8.13-1.417c1.207-0.686,2.234-2.065,3.093-4.131c0.864-2.071,0.69-3.615-0.516-4.647  c-1.027-0.685-2.281-1.075-3.736-1.159c-1.47-0.09-3.019-0.09-4.652,0c-1.633,0.084-3.225,0.174-4.773,0.253  c-1.549,0.09-2.84-0.037-3.867-0.385c1.375-4.815,25.354-42.431,26.734-46.394c0.685-1.723,1.423-3.651,2.202-5.812  c0.77-2.145,0.728-4.083-0.132-5.806c-1.386-2.403-11.012-4.447-13.678-5.264c-3.999-1.233-7.571-2.973-9.843-3.652  c-1.617-0.495-3.029-0.727-4.916-0.384c-1.896,0.348-2.402,0.437-3.782,1.47c-1.202,1.033-2.192,2.371-2.962,3.999  c-0.779,1.639-0.933,2.14-1.212,3.246c-0.273,1.106-0.379,5.295-1.886,8.704c-0.485,1.122-2.107,4.273-4.152,8.151  c-4.542,8.593-13.425,25.675-14.258,27.155c-1.206,2.155-2.582,4.221-4.131,6.197c-1.549,1.98-3.267,3.656-5.163,5.031  c-1.892,1.375-4.047,2.239-6.449,2.582c-1.207,0.174-2.804,0.127-4.774-0.132c-1.98-0.258-3.962-0.337-5.938-0.258  c-1.981,0.095-3.788,0.479-5.422,1.164c-1.634,0.69-2.629,1.981-2.972,3.867c-0.343,2.071,0.168,3.451,1.549,4.137  c1.381,0.69,3.014,1.075,4.911,1.159c1.886,0.09,3.867,0.174,5.933,0.258c2.065,0.09,3.614,0.564,4.647,1.418  c-1.207,0.521-2.113,1.464-2.709,2.84c-0.574,1.307-41.267,63.664-51.13,80.641c-0.911,1.238-1.733,2.571-2.692,3.773  c-2.755,3.44-5.596,6.881-8.515,10.326c-3.451,3.957-6.887,7.74-10.327,11.355c-3.445,3.609-7.055,7.224-10.843,10.838  c-0.686,0.521-1.639,1.291-2.841,2.329c-1.201,1.027-2.497,2.022-3.872,2.966s-2.751,1.634-4.126,2.066  c-1.38,0.432-2.587,0.384-3.614-0.133c-1.381-0.689-2.065-1.717-2.065-3.098c0-1.37,0.169-2.582,0.517-3.609  c1.375-6.022,3.783-11.702,7.229-17.039c3.436-5.333,42.162-70.811,47.494-78.729c0.338-0.521,0.77-1.206,1.291-2.07  c0.517-0.854,0.943-1.676,1.291-2.45c0.343-0.774,0.422-1.592,0.258-2.45c-0.174-0.858-0.689-1.549-1.549-2.065  c-1.386-0.859-2.756-0.985-4.125-0.385c-1.381,0.601-2.762,0.901-4.137,0.901c-2.93,0.168-5.98,0.168-9.162,0  c-3.188-0.169-6.07,0.258-8.646,1.29c-2.071,0.865-3.615,2.155-4.647,3.873c-0.353,0.343-0.99,1.249-1.934,2.714  c-0.948,1.46-1.339,2.36-1.159,2.708c-1.381-1.896-5.295-11.992-13.615-11.992c-8.314,0-16.207,2.208-19.306,3.409  c-3.788,1.38-11.87,5.4-15.227,7.292c-3.352,1.892-6.671,3.867-9.938,5.934c-2.239,1.549-4.384,3.098-6.449,4.646  c-2.071,1.549-4.047,3.188-5.938,4.905c-6.887,6.028-12.998,12.567-18.328,19.616c-5.076,6.713-9.787,13.779-14.239,21.118  c-1.138,0.976-2.137,2.076-3.312,3.02c-8.093,6.454-16.779,11.834-26.07,16.134c-5.164,2.413-10.631,4.604-16.393,6.586  c-5.767,1.976-11.615,3.309-17.556,3.994c-5.936,0.689-11.831,0.563-17.68-0.385c-5.856-0.949-11.273-3.23-16.263-6.84  c-5.338-3.788-9.292-8.214-11.877-13.293c-2.579-5.074-4.299-10.717-5.163-16.908c-0.685-4.3-0.988-8.557-0.901-12.777  c0.087-4.215,0.391-8.478,0.901-12.777c0.864-7.055,2.152-13.941,3.875-20.654c3.096-11.523,7.267-22.925,12.522-34.201  c5.245-11.265,11.396-21.812,18.451-31.618c7.743-10.67,16.818-20.687,27.238-30.07c10.406-9.379,21.809-16.565,34.201-21.556  c4.473-1.717,9.376-3.008,14.713-3.872c5.33-0.859,10.58-0.901,15.744-0.132c5.163,0.779,9.85,2.497,14.065,5.163  c4.22,2.672,7.444,6.581,9.685,11.745c1.891,4.305,2.924,9.084,3.098,14.326c0.163,5.253-0.258,10.111-1.291,14.584  c-1.896,8.262-5.422,16.355-10.585,24.27c-5.164,7.914-11.1,14.452-17.81,19.616c-2.758,2.06-5.854,3.915-9.292,5.548  c-3.448,1.639-6.971,2.54-10.585,2.714c-4.479,0-8.093-1.038-10.841-3.104c-2.756-2.061-4.737-4.685-5.938-7.872  c-1.203-3.183-1.594-6.665-1.161-10.448c0.427-3.788,1.586-7.234,3.485-10.327c1.715-2.924,3.746-5.374,6.064-7.36  c2.326-1.977,4.947-3.825,7.872-5.549c1.035-0.516,2.281-1.159,3.743-1.934c1.462-0.779,2.882-1.586,4.258-2.45  c1.377-0.863,2.542-1.896,3.485-3.104c0.945-1.195,1.425-2.492,1.425-3.867c0-3.271-1.381-4.947-4.134-5.037  c-2.755-0.084-5.896,0.521-9.421,1.808c-3.527,1.291-6.931,2.882-10.195,4.778c-3.27,1.892-5.337,3.183-6.193,3.868  c-4.647,3.445-8.693,7.487-12.135,12.134c-2.579,3.615-4.905,7.914-6.971,12.904c-2.062,4.994-3.27,10.068-3.609,15.232  c-0.353,5.163,0.259,10.111,1.803,14.843c1.551,4.731,4.649,8.562,9.294,11.486c3.954,2.581,8.391,3.999,13.296,4.257  c4.903,0.258,9.809-0.211,14.711-1.417c4.906-1.207,9.637-2.925,14.197-5.164c4.558-2.233,8.557-4.647,12.006-7.224  c6.533-4.82,12.387-10.543,17.551-17.172c5.163-6.617,9.895-13.372,14.194-20.264c4.815-7.74,8.651-16.002,11.486-24.774  c2.846-8.778,3.909-17.81,3.225-27.109c-0.511-5.501-1.981-10.664-4.384-15.485c-2.413-4.815-5.854-8.941-10.327-12.393  c-4.479-3.436-9.252-5.633-14.321-6.581c-5.079-0.943-10.374-1.327-15.878-1.159c-5.854,0.343-11.702,1.291-17.551,2.835  c-5.854,1.549-11.449,3.53-16.778,5.943c-1.9,0.864-3.876,1.634-5.941,2.318c-2.061,0.69-4.128,1.549-6.193,2.587  c-6.027,3.267-11.919,6.797-17.68,10.58c-5.77,3.788-11.402,7.835-16.911,12.135c-3.44,2.924-6.884,5.806-10.322,8.641  c-3.445,2.846-6.802,5.812-10.066,8.91c-11.876,11.354-22.287,23.536-31.234,36.524c-8.952,12.993-16.871,26.972-23.749,41.946  c-3.27,7.055-5.77,14.025-7.485,20.907c-1.899,6.712-3.227,13.642-4.004,20.78c-0.77,7.145-0.814,14.242-0.129,21.297  c0.685,7.056,2.152,13.937,4.392,20.649c2.233,6.713,5.419,12.999,9.55,18.842c1.718,2.413,3.741,4.737,6.064,6.971  c2.326,2.239,4.689,4.216,7.1,5.938c4.303,3.098,8.947,5.464,13.937,7.098c4.992,1.639,10.156,2.623,15.491,2.971  c5.503,0.343,11.012,0.174,16.521-0.516c5.504-0.686,10.754-1.896,15.744-3.615c12.042-4.131,23.362-9.727,33.942-16.781  c6.557-4.368,12.685-9.268,18.609-14.432c-0.236,1.285-0.514,2.593-0.669,3.852c-0.345,2.75-0.474,5.723-0.385,8.899  c0.082,3.192,0.557,6.243,1.42,9.168c0.859,2.925,2.192,5.548,4,7.872c1.807,2.323,4.262,3.999,7.357,5.037l0.514,0.258  c3.96,1.027,8.088,0.985,12.393-0.132c4.3-1.116,8.17-2.713,11.615-4.773c6.713-3.788,12.735-8.52,18.067-14.2  c1.202-1.375,2.366-2.666,3.488-3.867c1.117-1.207,2.36-2.413,3.741-3.619c0.685-0.686,1.417-1.502,2.191-2.45  c0.78-0.948,1.592-1.507,2.456-1.681c0.168,0.863,0.084,1.728-0.259,2.587c-0.353,0.858-0.69,1.718-1.038,2.576  c-0.864,3.788-0.896,7.661-0.126,11.618c0.779,3.957,2.624,7.313,5.554,10.068c3.098,3.094,6.538,4.563,10.327,4.385  c3.783-0.169,7.566-1.16,11.354-2.967c3.783-1.808,7.355-4.131,10.712-6.971c3.351-2.84,6.148-5.459,8.388-7.872  c3.267-3.436,6.497-6.923,9.679-10.454c3.188-3.524,6.328-7.097,9.422-10.711c0.036-0.037,0.068-0.079,0.1-0.116  c-0.79,2.855-1.428,5.728-1.781,8.636c-0.595,4.99-0.337,9.764,0.78,14.321c1.117,4.567,3.741,8.394,7.872,11.486  c2.407,1.901,4.815,3.192,7.224,3.878c6.022,2.065,11.876,2.145,17.562,0.258c5.669-1.896,11.096-4.773,16.26-8.651  c3.856-2.893,7.419-6.139,10.849-9.558c1.423-1.265,2.897-2.498,4.115-3.862c3.614-4.042,7.061-8.22,10.327-12.52  s6.539-8.436,9.811-12.393c3.614-4.647,7.266-9.421,10.97-14.326c3.699-4.905,7.267-9.595,10.712-14.068  c1.892-2.407,3.651-4.857,5.296-7.355c1.628-2.492,12.429-16.733,13.293-17.94c0.859-1.201,1.713-2.065,2.577-2.582  c-0.864,7.746-2.366,15.449-4.511,23.104c-2.16,7.656-4.184,15.19-6.069,22.588c-1.381,5.507-2.972,11.013-4.779,16.519  c-1.808,5.512-4.168,10.754-7.098,15.744c-0.863,1.38-1.98,3.098-3.351,5.163c-1.381,2.065-2.93,4.005-4.652,5.807  c-1.724,1.807-3.572,3.225-5.549,4.263c-1.98,1.032-3.914,1.201-5.806,0.511c-1.897-0.685-3.188-2.403-3.873-5.158  c-0.69-2.751-1.381-5.422-2.065-8.004c-0.69-2.581-1.639-4.558-2.84-5.938c-1.207-1.375-3.267-1.027-6.196,1.039  c-2.582,1.891-4.562,4.431-5.933,7.613c-1.381,3.182-1.639,6.322-0.774,9.421c0.511,1.892,1.327,3.482,2.449,4.773  c1.117,1.291,2.403,2.366,3.873,3.225c1.459,0.864,3.051,1.513,4.779,1.938c1.712,0.433,3.436,0.822,5.163,1.16h0.253  c6.533,1.037,12.814,0.559,18.842-1.418c6.022-1.976,11.528-4.863,16.523-8.651c4.99-3.783,9.463-8.251,13.426-13.415  c3.951-5.163,7.134-10.496,9.547-16.012c3.099-7.051,5.422-14.195,6.971-21.419c1.55-7.229,3.009-14.626,4.39-22.203  c0.854-4.642,1.675-9.289,2.455-13.937c0.77-4.647,1.755-9.295,2.961-13.941c0.517-1.892,1.159-3.693,1.939-5.422  c0.769-1.713,1.586-3.52,2.45-5.417c0-0.174,0.258-0.816,0.774-1.938c0.517-1.111,0.99-2.276,1.423-3.482  c0.421-1.202,0.811-2.324,1.158-3.357C916.464,219.96,916.544,219.443,916.375,219.443"></path>	<path fill="#FFFFFF" d="M1291.773,219.443c-1.896,0-3.614,0.217-5.164,0.648c-1.549,0.432-3.267,0.732-5.163,0.9  c-2.239,0.175-4.426,0.217-6.586,0.133c-2.15-0.09-4.342,0.216-6.576,0.9c-2.244,0.69-4.004,1.676-5.29,2.972  c-1.296,1.291-2.629,2.882-4.004,4.773c-3.268,4.3-6.323,8.646-9.158,13.036c-2.845,4.389-5.816,8.735-8.915,13.035  c-3.614,4.989-7.229,9.938-10.833,14.843c-3.614,4.905-7.408,9.769-11.359,14.584c-3.614,4.479-7.403,8.905-11.36,13.294  c-3.962,4.389-7.829,8.82-11.618,13.293c-2.755,3.272-5.548,6.413-8.383,9.422c-2.845,3.014-5.985,5.806-9.431,8.388  c-0.296,0.264-0.617,0.453-0.928,0.706c-1.138,0.664-2.276,1.37-3.456,1.876c-1.381,0.517-2.972,0.774-4.774,0.774  c-1.812,0-3.225-0.686-4.263-2.065c-1.206-1.549-1.596-3.44-1.164-5.68c0.432-2.234,1.249-4.516,2.455-6.834  c1.201-2.329,2.54-4.563,4.005-6.713c1.459-2.155,88.149-143.137,98.477-159.66c1.201-1.886,1.971-3.951,2.324-6.19  c0.342-2.234,0.595-4.474,0.769-6.713c0-1.892-0.3-3.356-0.9-4.384c-0.601-1.038-1.85-1.724-3.741-2.071  c-1.549-0.342-3.141-0.427-4.773-0.258c-1.645,0.174-3.141,0.432-4.521,0.78c-1.896,0.342-3.656,0.601-5.29,0.769  c-1.644,0.174-3.403,0.259-5.295,0.259c-2.408-0.164-4.479,0.089-6.191,0.779c-1.723,0.686-3.019,2.318-3.878,4.905  c-0.511,2.229-1.116,4.426-1.802,6.581c-0.695,2.149-1.549,4.258-2.582,6.323c-3.614,7.576-62.174,102.518-66.731,109.314  c-2.829,4.231-5.432,8.689-8.104,13.078c-0.227,0.269-0.442,0.447-0.669,0.732c-1.808,2.239-3.446,4.604-4.905,7.097  c-1.47,2.498-2.366,4.005-2.714,4.516c-3.44,5.164-6.929,10.201-10.453,15.101c-3.525,4.906-7.355,9.601-11.486,14.074  c-2.756,2.75-5.765,5.638-9.031,8.646c-3.277,3.014-6.713,5.289-10.327,6.839c-1.381,0.517-2.972,0.774-4.779,0.774  c-1.807,0-3.225-0.686-4.257-2.065c-1.207-1.549-1.591-3.44-1.159-5.68c0.427-2.234,1.249-4.516,2.45-6.834  c1.201-2.329,2.534-4.563,4.004-6.713c1.454-2.155,88.15-143.137,98.478-159.66c1.201-1.886,1.97-3.951,2.318-6.19  c0.348-2.234,0.605-4.474,0.779-6.713c0-1.892-0.306-3.356-0.906-4.384c-0.605-1.038-1.854-1.724-3.741-2.071  c-1.549-0.342-3.146-0.427-4.773-0.258c-1.644,0.174-3.15,0.432-4.521,0.78c-1.897,0.342-3.662,0.601-5.29,0.769  c-1.645,0.174-3.404,0.259-5.29,0.259c-2.413-0.164-4.479,0.089-6.196,0.779c-1.729,0.686-3.014,2.318-3.878,4.905  c-0.517,2.229-1.117,4.426-1.802,6.581c-0.696,2.149-1.55,4.258-2.582,6.323c-3.614,7.576-62.174,102.518-66.727,109.314  c-4.562,6.797-8.904,13.811-13.035,21.039c-2.244,3.789-4.689,8.046-7.355,12.777c-0.917,1.617-1.549,3.367-2.382,5.016  c-0.253,0.338-0.463,0.712-0.716,1.055c-3.878,5.158-8.046,10.152-12.52,14.963c-1.381,1.555-2.93,3.32-4.647,5.296  c-1.723,1.981-3.572,3.831-5.548,5.548c-1.981,1.724-4.047,3.141-6.191,4.258c-2.16,1.122-4.352,1.591-6.586,1.423  c-2.065,0-3.403-0.686-4.004-2.061c-0.602-1.38-0.69-3.141-0.259-5.295c0.427-2.155,1.249-4.474,2.455-6.972  c1.196-2.492,24.001-36.714,28.995-44.459c1.033-1.718,2.329-3.656,3.873-5.812c1.549-2.145,2.967-4.3,4.258-6.449  c1.29-2.149,2.323-4.39,3.098-6.713s1.069-4.604,0.906-6.845c-0.174-1.712-0.774-2.966-1.808-3.735  c-1.032-0.78-2.239-1.291-3.614-1.549c-1.38-0.259-2.84-0.348-4.384-0.259c-1.549,0.085-2.935,0.217-4.136,0.385  c-2.413,0.174-5.549,0.433-9.421,0.775c-3.873,0.342-6.755,1.459-8.646,3.355c-0.864,0.864-1.423,1.934-1.681,3.225  c-0.253,1.291-0.475,2.54-0.644,3.746c-0.353,3.615-1.417,6.93-3.224,9.938c-1.808,3.009-19.322,25.876-23.453,33.621  c-2.407,4.474-4.688,9.121-6.839,13.937c-1.639,3.673-2.719,7.482-3.509,11.354c-0.906,0.822-1.654,1.84-2.624,2.588  c-0.864,0.689-2.16,1.633-3.878,2.834c-1.718,1.212-3.525,2.197-5.416,2.967c-1.897,0.779-3.705,1.254-5.417,1.423  c-1.729,0.168-3.108-0.427-4.136-1.808c-0.69-1.033-0.949-2.149-0.775-3.356c0.169-1.201,0.559-2.45,1.16-3.741  c0.6-1.291,1.296-2.534,2.07-3.746c0.774-1.201,1.417-2.145,1.934-2.834c2.065-2.925,4.215-5.891,6.449-8.91  c2.239-3.004,4.221-6.148,5.943-9.421c1.713-3.267,2.793-6.618,3.225-10.069c0.427-3.436-0.127-7.05-1.676-10.838  c-2.413-5.68-5.985-9.764-10.717-12.261c-4.731-2.492-7.281-3.62-10.307-3.999c0.296-0.295,19.602-14.068,36.504-23.469  c12.593-7.018,32.868-16.007,35.629-15.143c-1.191-0.495-0.648,4.789,2.813,7.756c1.802,1.549,3.909,2.408,6.322,2.582  c2.74,0.348,17.909-0.875,20.181-14.126c1.896-12.872-10.375-15.986-13.468-16.334c-10.222-0.701-15.881,3.957-18.547,6.112  c-1.285,1.027-17.366,8.926-35.586,19.685c-19.737,11.665-49.887,31.366-50.646,31.898c-1.459,1.038-2.877,2.239-4.258,3.614  c1.892-1.887,62.723-105.227,65.31-109.705c2.576-4.468,4.21-9.373,4.905-14.711c0.168-1.033,0.337-2.018,0.516-2.967  c0.169-0.942-0.179-1.938-1.032-2.966c-0.695-0.864-1.729-1.333-3.099-1.423c-1.38-0.084-2.84-0.042-4.389,0.132  s-3.062,0.427-4.521,0.77c-1.46,0.348-2.619,0.605-3.483,0.779c-1.38,0.343-2.797,0.511-4.257,0.511  c-1.465,0-2.93,0.048-4.389,0.132c-1.471,0.09-2.841,0.427-4.137,1.033c-1.285,0.605-2.444,1.507-3.482,2.708  c-1.549,2.065-2.492,4.432-2.84,7.103c-0.343,2.666-1.027,5.206-2.065,7.614c-1.033,2.75-2.413,5.332-4.126,7.739  c-1.723,2.413-3.356,4.821-4.905,7.229c-3.962,5.849-93.313,156.346-95.643,159.781c-2.318,3.445-4.51,6.971-6.575,10.585  c-0.521,0.864-1.128,1.981-1.812,3.356s-1.159,2.709-1.417,3.999c-0.259,1.291-0.164,2.413,0.258,3.356  c0.427,0.948,1.591,1.507,3.488,1.676c0.685,0.174,1.886,0.301,3.614,0.39c1.718,0.085,3.394,0.132,5.032,0.132h4.516h2.317  l3.362-0.521c1.892,0,3.524-0.169,4.899-0.512c1.381-0.348,2.672-1.201,3.878-2.586c2.577-2.925,4.774-6.149,6.581-9.68  c1.808-3.52,3.651-6.924,5.549-10.195c2.065-3.436,4.173-6.924,6.322-10.448c2.149-3.53,4.173-7.019,6.07-10.459  c2.402-4.474,4.773-8.989,7.097-13.552c2.324-4.558,5.296-8.646,8.905-12.261c4.131-3.614,8.941-6.106,14.458-7.487  c1.195-0.343,2.449-0.601,3.74-0.774c3.483-0.754,5.749,2.65,6.508,5.68c0.759,3.409,0.158,6.713-0.695,9.806  c-0.864,3.098-2.155,6.117-3.879,9.041c-1.717,2.925-3.698,5.765-5.933,8.516c-2.239,2.755-4.22,5.252-5.943,7.486  c-1.892,2.576-3.572,5.422-5.031,8.521c-1.46,3.093-2.366,6.233-2.709,9.421c-0.342,3.188,0,6.19,1.028,9.036  c1.043,2.835,3.276,5.284,6.712,7.351c3.272,2.07,6.755,3.098,10.459,3.098c3.693,0,7.308-0.643,10.839-1.934  c3.529-1.291,6.976-3.009,10.326-5.164c3.356-2.149,6.323-4.347,8.91-6.58c1.934-1.607,3.684-3.483,5.559-5.19  c0.095,1.106,0,2.092,0.189,3.256c0.517,3.183,1.55,5.976,3.094,8.389c2.233,3.098,4.82,5.158,7.75,6.196  c3.436,1.201,7.224,1.201,11.354,0c4.126-1.207,8.13-3.057,11.998-5.554c3.878-2.492,7.529-5.2,10.98-8.13  c3.436-2.924,6.19-5.422,8.256-7.487c0.859-0.858,2.624-2.84,5.285-5.938c0.632-0.722,1.349-1.586,2.023-2.376  c-0.354,1.565-0.748,3.124-0.99,4.7c-0.77,5.163-0.38,9.984,1.169,14.458c1.201,3.093,3.225,5.68,6.06,7.74  c2.84,2.065,5.891,3.276,9.163,3.614c1.206,0,2.323-0.037,3.356-0.127c1.032-0.084,2.149-0.3,3.355-0.643  c6.022-1.723,11.145-4.041,15.359-6.971c4.215-2.924,8.651-6.37,13.299-10.327c5.648-4.547,10.67-9.632,15.322-15.011  c-0.627,2.412-1.148,4.836-1.513,7.266c-0.774,5.163-0.39,9.984,1.159,14.458c1.207,3.093,3.23,5.68,6.065,7.74  c2.845,2.065,5.891,3.276,9.168,3.614c1.195,0,2.318-0.037,3.355-0.127c1.028-0.084,2.145-0.3,3.356-0.643  c6.018-1.723,11.134-4.041,15.354-6.971c4.215-2.924,8.651-6.37,13.293-10.327c7.056-5.675,13.336-12.003,18.848-18.974  c1.991-2.519,3.772-5.222,5.69-7.793c0.769-0.953,1.538-1.986,2.308-2.919c3.614-4.647,7.271-9.421,10.97-14.326  c3.704-4.905,28.442-38.157,29.306-39.364c0.854-1.201,1.718-2.065,2.577-2.582c-0.859,7.746-2.366,15.449-4.516,23.104  c-2.149,7.656-4.173,15.19-6.064,22.588c-1.381,5.507-2.972,11.013-4.779,16.519c-1.808,5.512-4.173,10.754-7.092,15.744  c-0.864,1.38-1.981,3.098-3.361,5.163c-1.381,2.065-2.93,4.005-4.647,5.807c-1.723,1.807-3.572,3.225-5.549,4.263  c-1.98,1.032-3.914,1.201-5.812,0.511c-1.896-0.685-3.182-2.403-3.867-5.158c-0.69-2.751-1.38-5.422-2.065-8.004  c-0.695-2.581-1.633-4.558-2.84-5.938c-1.207-1.375-3.272-1.027-6.191,1.039c-2.587,1.891-4.567,4.431-5.943,7.613  c-1.375,3.182-1.633,6.322-0.769,9.421c0.511,1.892,3.267,17.065,39.227,7.598c6.022-1.976,7.667-2.782,12.651-6.57  c4.995-3.783,9.463-8.251,13.425-13.415c3.957-5.163,7.14-10.496,9.548-16.012c3.098-7.051,5.427-14.195,6.976-21.419  c1.55-7.229,3.009-14.626,4.384-22.203c0.859-4.642,1.676-9.289,2.456-13.937c0.769-4.647,1.76-9.295,2.972-13.941  c0.516-1.892,1.159-3.693,1.934-5.422c0.774-1.713,1.586-3.52,2.45-5.417c0-0.174,0.258-0.816,0.779-1.938  c0.506-1.111,0.98-2.276,1.412-3.482c0.433-1.202,0.816-2.324,1.165-3.357C1291.857,219.96,1291.942,219.443,1291.773,219.443"></path>	<path fill="#FFFFFF" d="M369.628,111.077"></path>	<path fill="#FFFFFF" d="M1047.177,477.475c0.137-1.644,0.527-3.161,1.17-4.541c0.647-1.381,1.491-2.571,2.539-3.578  c1.044-0.996,2.256-1.781,3.636-2.334c1.386-0.559,2.855-0.838,4.416-0.838c1.56,0,3.029,0.279,4.41,0.838  c1.38,0.553,2.597,1.328,3.641,2.303c1.048,0.98,1.918,2.176,2.603,3.577c0.695,1.401,1.106,2.93,1.238,4.573H1047.177z   M1063.879,497.25c1.603-0.443,3.067-1.055,4.379-1.834c1.312-0.774,2.477-1.702,3.473-2.771c1.001-1.069,1.796-2.25,2.376-3.541  l-5.079-1.401c-0.354,0.891-0.88,1.687-1.57,2.403c-0.69,0.716-1.48,1.312-2.376,1.807c-0.886,0.49-1.845,0.875-2.867,1.17  c-1.021,0.284-2.075,0.432-3.14,0.432c-1.518,0-2.951-0.295-4.311-0.869c-1.359-0.58-2.571-1.381-3.646-2.408  c-1.064-1.021-1.934-2.25-2.604-3.672c-0.669-1.428-1.069-3.009-1.201-4.742h28.927c0.042-0.222,0.084-0.537,0.105-0.943  c0.021-0.396,0.031-0.838,0.031-1.328c0-2.318-0.41-4.558-1.232-6.718c-0.833-2.16-2.002-4.052-3.51-5.68  c-1.517-1.628-3.355-2.93-5.517-3.909c-2.154-0.975-4.552-1.465-7.181-1.465c-2.624,0-5.032,0.479-7.219,1.433  c-2.182,0.959-4.062,2.261-5.644,3.904c-1.58,1.654-2.808,3.567-3.672,5.749c-0.869,2.187-1.307,4.499-1.307,6.949  s0.438,4.779,1.307,6.981c0.864,2.208,2.081,4.131,3.641,5.785c1.56,1.644,3.425,2.951,5.611,3.904  c2.182,0.959,4.584,1.434,7.213,1.434C1060.602,497.919,1062.278,497.697,1063.879,497.25 M1038.425,462.174  c-0.221-0.042-0.49-0.062-0.806-0.062h-1.128c-2.234,0.179-4.326,1.017-6.28,2.502c-1.966,1.497-3.552,3.441-4.742,5.849v-8.088  h-5.485v34.876h5.881v-21.508c0.932-2.545,2.523-4.521,4.778-5.949c2.245-1.423,4.843-2.187,7.782-2.271V462.174z M984.54,474.841  c0.601-1.581,1.423-2.967,2.477-4.146c1.043-1.181,2.266-2.113,3.667-2.804c1.407-0.689,2.909-1.037,4.516-1.037  c1.602,0,3.104,0.337,4.511,1.006c1.401,0.664,2.64,1.591,3.704,2.771c1.069,1.175,1.907,2.556,2.508,4.136  c0.601,1.581,0.896,3.267,0.896,5.048c0,1.828-0.295,3.53-0.896,5.111c-0.601,1.586-1.438,2.966-2.508,4.141  c-1.064,1.181-2.303,2.108-3.704,2.771c-1.407,0.67-2.909,1.007-4.511,1.007c-1.606,0-3.108-0.337-4.516-1.007  c-1.401-0.663-2.624-1.58-3.667-2.734c-1.054-1.159-1.876-2.519-2.477-4.078s-0.906-3.251-0.906-5.079  C983.633,478.123,983.939,476.422,984.54,474.841 M1002.38,496.454c2.16-0.985,4.016-2.292,5.574-3.946  c1.561-1.645,2.767-3.562,3.615-5.743c0.843-2.182,1.265-4.474,1.265-6.882c0-2.449-0.433-4.768-1.297-6.949  c-0.874-2.188-2.075-4.1-3.614-5.743c-1.538-1.655-3.393-2.967-5.574-3.946c-2.187-0.975-4.573-1.465-7.15-1.465  c-2.587,0-4.958,0.49-7.118,1.465c-2.16,0.979-4.005,2.291-5.543,3.946c-1.538,1.644-2.745,3.556-3.614,5.743  c-0.864,2.182-1.297,4.5-1.297,6.949c0,2.408,0.422,4.7,1.265,6.882c0.849,2.181,2.045,4.099,3.578,5.743  c1.533,1.654,3.383,2.961,5.543,3.946c2.165,0.975,4.552,1.465,7.187,1.465C997.828,497.919,1000.215,497.429,1002.38,496.454   M970.145,497.25v-47.437h-6.28l-17.24,30.802l-17.177-30.802h-6.344v47.437h6.012v-36.678l15.833,28.126h3.414l15.766-28.126  v36.678H970.145z M900.985,462.174c-0.222-0.042-0.485-0.062-0.801-0.062h-1.133c-2.229,0.179-4.321,1.017-6.281,2.502  c-1.965,1.497-3.546,3.441-4.747,5.849v-8.088h-5.479v34.876h5.886v-21.508c0.932-2.545,2.523-4.521,4.773-5.949  c2.25-1.423,4.842-2.187,7.782-2.271V462.174z M846.798,477.475c0.132-1.644,0.527-3.161,1.17-4.541  c0.643-1.381,1.496-2.571,2.54-3.578c1.048-0.996,2.26-1.781,3.646-2.334c1.381-0.559,2.846-0.838,4.405-0.838  s3.035,0.279,4.405,0.838c1.38,0.553,2.598,1.328,3.646,2.303c1.043,0.98,1.918,2.176,2.603,3.577  c0.696,1.401,1.107,2.93,1.238,4.573H846.798z M863.506,497.25c1.602-0.443,3.062-1.055,4.379-1.834  c1.307-0.774,2.466-1.702,3.472-2.771c0.996-1.069,1.792-2.25,2.366-3.541l-5.074-1.401c-0.353,0.891-0.88,1.687-1.57,2.403  c-0.69,0.716-1.48,1.312-2.376,1.807c-0.885,0.49-1.844,0.875-2.866,1.17c-1.027,0.284-2.076,0.432-3.141,0.432  c-1.518,0-2.95-0.295-4.31-0.869c-1.359-0.58-2.577-1.381-3.646-2.408c-1.064-1.021-1.938-2.25-2.603-3.672  c-0.675-1.428-1.069-3.009-1.207-4.742h28.938c0.042-0.222,0.079-0.537,0.1-0.943c0.021-0.396,0.032-0.838,0.032-1.328  c0-2.318-0.411-4.558-1.238-6.718s-1.992-4.052-3.504-5.68c-1.518-1.628-3.352-2.93-5.517-3.909  c-2.155-0.975-4.558-1.465-7.182-1.465s-5.037,0.479-7.213,1.433c-2.187,0.959-4.068,2.261-5.648,3.904  c-1.586,1.654-2.809,3.567-3.673,5.749c-0.875,2.187-1.307,4.499-1.307,6.949s0.432,4.779,1.307,6.981  c0.864,2.208,2.076,4.131,3.636,5.785c1.56,1.644,3.436,2.951,5.616,3.904c2.182,0.959,4.59,1.434,7.219,1.434  C860.235,497.919,861.9,497.697,863.506,497.25 M824.69,497.25l13.763-34.876h-5.617l-11.091,29.733l-11.027-29.733h-6.081  l13.763,34.876H824.69z M774.072,474.841c0.6-1.581,1.428-2.967,2.471-4.146c1.049-1.181,2.271-2.113,3.678-2.804  c1.401-0.689,2.908-1.037,4.51-1.037c1.603,0,3.109,0.337,4.511,1.006c1.401,0.664,2.635,1.591,3.704,2.771  c1.069,1.175,1.902,2.556,2.514,4.136c0.595,1.581,0.896,3.267,0.896,5.048c0,1.828-0.301,3.53-0.896,5.111  c-0.611,1.586-1.444,2.966-2.514,4.141c-1.069,1.181-2.303,2.108-3.704,2.771c-1.401,0.67-2.908,1.007-4.511,1.007  c-1.602,0-3.108-0.337-4.51-1.007c-1.407-0.663-2.629-1.58-3.678-2.734c-1.043-1.159-1.871-2.519-2.471-4.078  c-0.606-1.56-0.901-3.251-0.901-5.079C773.17,478.123,773.465,476.422,774.072,474.841 M791.907,496.454  c2.165-0.985,4.025-2.292,5.585-3.946c1.555-1.645,2.761-3.562,3.604-5.743c0.849-2.182,1.271-4.474,1.271-6.882  c0-2.449-0.433-4.768-1.302-6.949c-0.864-2.188-2.07-4.1-3.609-5.743c-1.533-1.655-3.398-2.967-5.579-3.946  c-2.182-0.975-4.563-1.465-7.146-1.465c-2.587,0-4.963,0.49-7.118,1.465c-2.155,0.979-4.01,2.291-5.548,3.946  c-1.539,1.644-2.74,3.556-3.609,5.743c-0.859,2.182-1.302,4.5-1.302,6.949c0,2.408,0.422,4.7,1.271,6.882  c0.848,2.181,2.039,4.099,3.577,5.743c1.538,1.654,3.383,2.961,5.543,3.946c2.16,0.975,4.558,1.465,7.187,1.465  C787.354,497.919,789.751,497.429,791.907,496.454 M731.777,486.732c0.87,2.203,2.087,4.131,3.642,5.775  c1.56,1.654,3.43,2.961,5.611,3.946c2.181,0.975,4.584,1.465,7.218,1.465c1.734,0,3.394-0.222,4.975-0.669  c1.58-0.443,3.019-1.038,4.31-1.803c1.296-0.753,2.424-1.664,3.372-2.739c0.965-1.069,1.707-2.245,2.245-3.541l-5.749-1.733  c-0.263,0.759-0.711,1.459-1.338,2.103c-0.616,0.647-1.344,1.212-2.166,1.707c-0.832,0.489-1.738,0.874-2.745,1.169  c-1.006,0.285-2.013,0.433-3.04,0.433c-1.602,0-3.104-0.337-4.51-1.007c-1.401-0.663-2.624-1.591-3.667-2.771  c-1.054-1.175-1.887-2.57-2.514-4.178c-0.616-1.602-0.933-3.309-0.933-5.143c0-1.871,0.306-3.588,0.901-5.143  c0.605-1.56,1.417-2.914,2.439-4.078c1.021-1.159,2.249-2.061,3.672-2.708c1.428-0.638,2.94-0.964,4.548-0.964  c1.96,0,3.74,0.458,5.342,1.369c1.603,0.912,2.851,2.192,3.747,3.842l5.748-1.808c-1.296-2.577-3.203-4.637-5.717-6.175  c-2.519-1.539-5.517-2.303-8.989-2.303c-2.671,0-5.084,0.479-7.255,1.433c-2.155,0.959-4.015,2.25-5.574,3.873  c-1.56,1.628-2.762,3.535-3.604,5.717c-0.848,2.181-1.275,4.499-1.275,6.944C730.47,482.196,730.908,484.525,731.777,486.732   M722.125,495.053c2.492-1.918,3.741-4.5,3.741-7.756c0-1.465-0.284-2.714-0.838-3.741c-0.554-1.022-1.401-1.913-2.534-2.677  c-1.139-0.754-2.561-1.412-4.278-1.965c-1.718-0.559-3.73-1.102-6.049-1.639c-1.471-0.354-2.729-0.69-3.772-1.002  c-1.044-0.311-1.908-0.669-2.571-1.069c-0.675-0.4-1.149-0.869-1.438-1.401c-0.29-0.532-0.438-1.201-0.438-2.008  c0-2.002,0.748-3.461,2.239-4.373c1.496-0.911,3.309-1.37,5.442-1.37c1.918,0,3.789,0.321,5.617,0.97  c1.823,0.648,3.473,1.612,4.942,2.908l2.671-3.546c-1.554-1.38-3.472-2.492-5.748-3.341c-2.266-0.848-4.721-1.264-7.345-1.264  c-1.876,0-3.62,0.231-5.248,0.7c-1.623,0.464-3.04,1.159-4.236,2.071c-1.201,0.911-2.155,2.044-2.846,3.403  c-0.689,1.359-1.032,2.908-1.032,4.647c0,1.381,0.221,2.534,0.664,3.473c0.453,0.932,1.159,1.738,2.139,2.407  c0.98,0.664,2.229,1.243,3.741,1.739c1.518,0.489,3.319,0.995,5.417,1.527c1.644,0.406,3.098,0.785,4.341,1.139  c1.244,0.357,2.271,0.758,3.077,1.206c0.801,0.448,1.401,0.964,1.803,1.57c0.4,0.596,0.6,1.328,0.6,2.165  c0,1.834-0.748,3.246-2.233,4.247c-1.496,1.007-3.515,1.502-6.049,1.502c-2.276,0-4.437-0.39-6.48-1.165  c-2.056-0.784-4.1-1.949-6.154-3.509l-2.534,3.941c1.96,1.649,4.294,2.908,7.013,3.778c2.719,0.863,5.479,1.296,8.288,1.296  C716.265,497.919,719.627,496.965,722.125,495.053 M690.321,448.475h-5.88v7.351h5.88V448.475z M690.321,462.374h-5.88v34.876h5.88  V462.374z M669.708,480.784c-0.737,2.25-1.807,4.199-3.214,5.843c-1.401,1.649-3.161,2.94-5.274,3.879  c-2.112,0.932-4.531,1.406-7.25,1.406h-10.424v-36.751h10.424c2.677,0,5.054,0.453,7.15,1.37c2.092,0.911,3.867,2.171,5.311,3.772  c1.449,1.602,2.54,3.535,3.277,5.78c0.732,2.25,1.102,4.715,1.102,7.387C670.81,476.095,670.441,478.534,669.708,480.784   M653.97,497.25c3.473,0,6.623-0.564,9.458-1.697c2.824-1.138,5.248-2.74,7.245-4.815c2.008-2.071,3.546-4.563,4.61-7.482  c1.075-2.919,1.606-6.175,1.606-9.784c0-3.256-0.479-6.317-1.438-9.189c-0.959-2.871-2.393-5.379-4.311-7.519  c-1.912-2.134-4.31-3.83-7.176-5.073c-2.877-1.249-6.207-1.876-9.996-1.876h-16.434v47.437H653.97z M608.67,502.666l2.008-5.949  v-6.943h-5.548v6.943h2.002l-1.333,5.949H608.67z M569.849,477.475c0.137-1.644,0.524-3.161,1.172-4.541  c0.648-1.381,1.494-2.571,2.54-3.578c1.049-0.996,2.263-1.781,3.644-2.334c1.375-0.559,2.848-0.838,4.407-0.838  s3.027,0.279,4.407,0.838c1.384,0.553,2.596,1.328,3.644,2.303c1.046,0.98,1.916,2.176,2.605,3.577  c0.69,1.401,1.106,2.93,1.236,4.573H569.849z M586.554,497.25c1.607-0.443,3.064-1.055,4.381-1.834  c1.312-0.774,2.472-1.702,3.47-2.771c1.004-1.069,1.797-2.25,2.374-3.541l-5.077-1.401c-0.355,0.891-0.88,1.687-1.569,2.403  c-0.69,0.716-1.483,1.312-2.374,1.807c-0.891,0.49-1.847,0.875-2.872,1.17c-1.024,0.284-2.07,0.432-3.14,0.432  c-1.515,0-2.951-0.295-4.311-0.869c-1.359-0.58-2.573-1.381-3.641-2.408c-1.069-1.021-1.938-2.25-2.608-3.672  c-0.669-1.428-1.066-3.009-1.201-4.742h28.93c0.042-0.222,0.081-0.537,0.103-0.943c0.021-0.396,0.031-0.838,0.031-1.328  c0-2.318-0.408-4.558-1.235-6.718c-0.824-2.16-1.997-4.052-3.507-5.68c-1.515-1.628-3.351-2.93-5.514-3.909  c-2.157-0.975-4.555-1.465-7.182-1.465c-2.626,0-5.034,0.479-7.213,1.433c-2.187,0.959-4.067,2.261-5.648,3.904  c-1.581,1.654-2.806,3.567-3.675,5.749c-0.87,2.187-1.307,4.499-1.307,6.949s0.437,4.779,1.307,6.981  c0.869,2.208,2.084,4.131,3.641,5.785c1.56,1.644,3.433,2.951,5.611,3.904c2.187,0.959,4.587,1.434,7.221,1.434  C583.285,497.919,584.953,497.697,586.554,497.25 M555.422,495.053c2.492-1.918,3.738-4.5,3.738-7.756  c0-1.465-0.273-2.714-0.835-3.741c-0.556-1.022-1.404-1.913-2.537-2.677c-1.138-0.754-2.561-1.412-4.278-1.965  c-1.715-0.559-3.728-1.102-6.041-1.639c-1.475-0.354-2.731-0.69-3.777-1.002c-1.046-0.311-1.905-0.669-2.574-1.069  s-1.148-0.869-1.436-1.401c-0.29-0.532-0.438-1.201-0.438-2.008c0-2.002,0.745-3.461,2.239-4.373  c1.496-0.911,3.309-1.37,5.445-1.37c1.916,0,3.786,0.321,5.617,0.97c1.823,0.648,3.475,1.612,4.942,2.908l2.669-3.546  c-1.558-1.38-3.473-2.492-5.746-3.341c-2.271-0.848-4.721-1.264-7.348-1.264c-1.873,0-3.62,0.231-5.245,0.7  c-1.623,0.464-3.038,1.159-4.239,2.071c-1.204,0.911-2.155,2.044-2.845,3.403c-0.69,1.359-1.036,2.908-1.036,4.647  c0,1.381,0.227,2.534,0.67,3.473c0.447,0.932,1.159,1.738,2.142,2.407c0.978,0.664,2.224,1.243,3.738,1.739  c1.518,0.489,3.319,0.995,5.411,1.527c1.646,0.406,3.098,0.785,4.344,1.139c1.246,0.357,2.271,0.758,3.075,1.206  c0.801,0.448,1.404,0.964,1.802,1.57c0.4,0.596,0.605,1.328,0.605,2.165c0,1.834-0.75,3.246-2.239,4.247  c-1.493,1.007-3.506,1.502-6.048,1.502c-2.271,0-4.435-0.39-6.481-1.165c-2.05-0.784-4.099-1.949-6.148-3.509l-2.537,3.941  c1.96,1.649,4.294,2.908,7.016,3.778c2.719,0.863,5.479,1.296,8.285,1.296C549.564,497.919,552.925,496.965,555.422,495.053   M497.659,474.841c0.601-1.581,1.426-2.967,2.472-4.146c1.049-1.181,2.271-2.113,3.675-2.804c1.401-0.689,2.908-1.037,4.511-1.037  c1.602,0,3.108,0.337,4.51,1.006c1.404,0.664,2.64,1.591,3.707,2.771c1.069,1.175,1.904,2.556,2.508,4.136  c0.601,1.581,0.9,3.267,0.9,5.048c0,1.828-0.3,3.53-0.9,5.111c-0.604,1.586-1.438,2.966-2.508,4.141  c-1.067,1.181-2.303,2.108-3.707,2.771c-1.401,0.67-2.908,1.007-4.51,1.007c-1.603,0-3.109-0.337-4.511-1.007  c-1.404-0.663-2.626-1.58-3.675-2.734c-1.046-1.159-1.871-2.519-2.472-4.078c-0.603-1.56-0.9-3.251-0.9-5.079  C496.758,478.123,497.056,476.422,497.659,474.841 M515.498,496.454c2.162-0.985,4.02-2.292,5.579-3.946  c1.558-1.645,2.761-3.562,3.609-5.743c0.846-2.182,1.268-4.474,1.268-6.882c0-2.449-0.433-4.768-1.302-6.949  c-0.867-2.188-2.07-4.1-3.609-5.743c-1.536-1.655-3.393-2.967-5.577-3.946c-2.182-0.975-4.565-1.465-7.149-1.465  c-2.585,0-4.953,0.49-7.116,1.465c-2.157,0.979-4.01,2.291-5.548,3.946c-1.531,1.644-2.734,3.556-3.604,5.743  c-0.866,2.182-1.304,4.5-1.304,6.949c0,2.408,0.424,4.7,1.268,6.882c0.845,2.181,2.039,4.099,3.577,5.743  c1.536,1.654,3.383,2.961,5.546,3.946c2.157,0.975,4.555,1.465,7.182,1.465C510.942,497.919,513.339,497.429,515.498,496.454   M474.109,490.373c0,2.313,0.654,4.121,1.969,5.412c1.312,1.296,3.108,1.934,5.379,1.934c1.025,0,2.208-0.132,3.541-0.396  c1.336-0.274,2.498-0.606,3.473-1.007l-0.933-4.741c-0.583,0.221-1.204,0.411-1.871,0.569c-0.669,0.152-1.248,0.231-1.738,0.231  c-1.246,0-2.219-0.369-2.908-1.102c-0.69-0.737-1.036-1.749-1.036-3.04v-39.76h-5.875V490.373z M427.904,482.122  c1.093,2.914,2.626,5.522,4.612,7.814c1.979,2.297,4.331,4.151,7.045,5.585c2.722,1.422,5.703,2.134,8.957,2.134  c1.823,0,3.696-0.247,5.611-0.732c1.915-0.49,3.728-1.206,5.443-2.145c1.718-0.933,3.253-2.081,4.612-3.436  c1.362-1.359,2.419-2.929,3.175-4.716l-5.014-2.734c-0.669,1.465-1.527,2.729-2.573,3.772c-1.046,1.044-2.169,1.913-3.373,2.604  c-1.203,0.69-2.46,1.196-3.774,1.507c-1.312,0.311-2.598,0.469-3.844,0.469c-2.358,0-4.542-0.512-6.544-1.539  c-2.008-1.021-3.744-2.407-5.211-4.141c-1.473-1.739-2.616-3.73-3.443-5.98c-0.825-2.25-1.236-4.621-1.236-7.113  c0-2.229,0.346-4.447,1.036-6.649c0.692-2.208,1.728-4.188,3.108-5.943c1.381-1.765,3.08-3.192,5.108-4.284  c2.031-1.085,4.354-1.633,6.983-1.633c1.202,0,2.427,0.132,3.673,0.4c1.246,0.264,2.461,0.711,3.644,1.338  c1.18,0.622,2.271,1.444,3.274,2.472c1.004,1.022,1.86,2.292,2.574,3.81l4.742-3.077c-1.468-3.072-3.718-5.569-6.75-7.482  c-3.026-1.917-6.657-2.876-10.888-2.876c-3.567,0-6.75,0.695-9.556,2.07c-2.806,1.381-5.18,3.203-7.116,5.453  c-1.938,2.25-3.411,4.784-4.41,7.608c-1.001,2.835-1.504,5.675-1.504,8.521C426.267,476.231,426.813,479.203,427.904,482.122   M394.533,490.373c0,2.313,0.658,4.121,1.968,5.412c1.317,1.296,3.108,1.934,5.38,1.934c1.024,0,2.207-0.132,3.54-0.396  c1.339-0.274,2.498-0.606,3.476-1.007l-0.936-4.741c-0.577,0.221-1.201,0.411-1.871,0.569c-0.669,0.152-1.248,0.231-1.738,0.231  c-1.246,0-2.219-0.369-2.903-1.102c-0.69-0.737-1.035-1.749-1.035-3.04v-39.76h-5.88V490.373z M358.654,477.475  c0.134-1.644,0.521-3.161,1.169-4.541c0.644-1.381,1.489-2.571,2.537-3.578c1.046-0.996,2.261-1.781,3.641-2.334  c1.381-0.559,2.849-0.838,4.408-0.838s3.032,0.279,4.412,0.838c1.384,0.553,2.598,1.328,3.644,2.303  c1.046,0.98,1.916,2.176,2.605,3.577c0.69,1.401,1.102,2.93,1.236,4.573H358.654z M375.356,497.25  c1.602-0.443,3.059-1.055,4.376-1.834c1.312-0.774,2.471-1.702,3.475-2.771s1.792-2.25,2.374-3.541l-5.082-1.401  c-0.355,0.891-0.88,1.687-1.57,2.403c-0.69,0.716-1.478,1.312-2.368,1.807c-0.891,0.49-1.853,0.875-2.877,1.17  c-1.025,0.284-2.07,0.432-3.141,0.432c-1.515,0-2.95-0.295-4.31-0.869c-1.354-0.58-2.569-1.381-3.636-2.408  c-1.075-1.021-1.944-2.25-2.608-3.672c-0.669-1.428-1.072-3.009-1.201-4.742h28.93c0.044-0.222,0.076-0.537,0.097-0.943  c0.026-0.396,0.037-0.838,0.037-1.328c0-2.318-0.413-4.558-1.235-6.718c-0.824-2.16-1.994-4.052-3.512-5.68  c-1.51-1.628-3.351-2.93-5.509-3.909c-2.163-0.975-4.553-1.465-7.187-1.465c-2.627,0-5.035,0.479-7.214,1.433  c-2.184,0.959-4.062,2.261-5.643,3.904c-1.586,1.654-2.812,3.567-3.681,5.749c-0.869,2.187-1.302,4.499-1.302,6.949  s0.433,4.779,1.302,6.981c0.869,2.208,2.084,4.131,3.641,5.785c1.56,1.644,3.433,2.951,5.617,3.904  c2.182,0.959,4.587,1.434,7.216,1.434C372.082,497.919,373.754,497.697,375.356,497.25 M336.537,497.25l13.763-34.876h-5.611  l-11.091,29.733l-11.023-29.733h-6.083l13.766,34.876H336.537z M291.772,492.977c-0.936-0.354-1.749-0.844-2.439-1.471  c-0.69-0.621-1.226-1.354-1.603-2.202c-0.384-0.849-0.571-1.76-0.571-2.739c0-2.002,0.928-3.631,2.771-4.879  c1.853-1.244,4.247-1.871,7.187-1.871c3.069,0,6.033,0.559,8.887,1.67v5.143c0,0.896-0.427,1.766-1.272,2.608  c-0.933,1.291-2.306,2.329-4.107,3.104c-1.808,0.785-3.754,1.175-5.849,1.175C293.708,493.514,292.705,493.335,291.772,492.977   M300.89,496.285c2.384-1.091,4.352-2.682,5.911-4.779l0.135,2.477c0.137,0.975,0.545,1.812,1.235,2.503  c0.693,0.69,1.615,1.038,2.774,1.038c0.442,0,0.869-0.026,1.267-0.068c0.406-0.047,0.914-0.11,1.539-0.205v-5.074  c-1.246-0.043-1.873-0.759-1.873-2.14v-14.231c0-4.452-1.278-7.903-3.842-10.354c-2.555-2.45-6.133-3.672-10.719-3.672  c-4.545,0-9.065,1.507-13.565,4.541l1.937,3.81c3.875-2.719,7.571-4.078,11.094-4.078c2.939,0,5.214,0.812,6.815,2.435  c1.602,1.633,2.405,3.873,2.405,6.718v2.809c-1.339-0.538-2.874-0.959-4.613-1.271c-1.736-0.311-3.453-0.469-5.143-0.469  c-2.142,0-4.109,0.27-5.911,0.807c-1.808,0.532-3.367,1.265-4.679,2.197c-1.317,0.943-2.332,2.065-3.043,3.377  c-0.712,1.312-1.067,2.777-1.067,4.379c0,1.56,0.3,2.992,0.901,4.31c0.603,1.312,1.422,2.461,2.477,3.436  c1.04,0.985,2.281,1.749,3.706,2.313c1.423,0.553,2.961,0.827,4.608,0.827C295.958,497.919,298.511,497.376,300.89,496.285   M278.476,462.174c-0.227-0.042-0.49-0.062-0.804-0.062h-1.133c-2.229,0.179-4.321,1.017-6.286,2.502  c-1.957,1.497-3.538,3.441-4.742,5.849v-8.088h-5.477v34.876h5.874v-21.508c0.94-2.545,2.532-4.521,4.782-5.949  c2.25-1.423,4.845-2.187,7.785-2.271V462.174z M259.565,449.813h-38.756v5.348h16.371v42.089h6.015v-42.089h16.37V449.813z"></path></g><g>	<line fill="#FFFFFF" x1="150.398" y1="401.592" x2="1141.081" y2="401.592"></line>	<rect x="150.398" y="400.279" fill="#FFFFFF" width="990.683" height="2.624"></rect></g><path fill="#FFFFFF" d="M921.861,107.721c-3.479,0.858-8.473,1.522-11.734,1.518c-8.783-0.011-23.848-7.192-32.836-11.376 c-21.865-10.159-49.794-25.585-69.648-36.9c-44.48-26.13-85.446-50.527-105.708-50.527c-43.765,0-194.999,88.202-211.991,88.202 c-9.031,0-11.545-37.094-52.216-35.581c-21.792,0.806-75.639,37.974-93.869,44.454c-3.33,0.875-6.62,1.581-9.853,1.971 c-4.474,0.517-8.944,0.648-13.418,0.39c-4.479-0.258-8.951-0.727-13.425-1.417c-6.025-0.864-12.048-1.766-18.067-2.719 c-6.027-0.943-12.05-2.36-18.07-4.252c-11.702-3.783-23.836-6.154-36.397-7.103c-12.562-0.943-24.867-1.249-36.909-0.901 c-6.027,0.174-12.05,0.822-18.07,1.939c-6.027,1.122-11.789,2.539-17.298,4.257c-9.463,2.93-18.71,6.671-27.749,11.223 c-9.031,4.568-17.638,9.854-25.812,15.881c-8.172,6.022-15.704,12.735-22.583,20.133c-6.887,7.403-12.906,15.401-18.07,24.006 c-3.098,5.337-5.812,11.102-8.133,17.292c-2.324,6.196-3.915,12.52-4.773,18.979c-0.864,6.449-0.819,12.82,0.129,19.101 c0.946,6.28,3.227,12.271,6.842,17.978c3.438,5.406,8.169,9.421,14.194,12.029c6.022,2.619,12.39,4.1,19.1,4.452 c5.164,0.348,10.496-0.005,16.004-1.054c5.509-1.038,10.844-2.608,16.007-4.705c5.159-2.087,10.064-4.658,14.714-7.714 c4.645-3.056,8.773-6.565,12.388-10.538c0.519-0.511,1.116-1.159,1.807-1.929c0.686-0.779,1.204-1.638,1.55-2.587 c0.345-0.943,0.469-1.807,0.387-2.576c-0.09-0.78-0.646-1.333-1.678-1.681c-1.207-0.343-2.627-0.174-4.26,0.511 c-1.637,0.695-3.272,1.555-4.906,2.587c-1.636,1.033-3.227,2.065-4.776,3.099c-1.546,1.027-2.837,1.807-3.867,2.323 c-3.614,1.892-7.444,3.183-11.486,3.867c-4.046,0.69-8.051,1.038-12.005,1.038c-3.099,0-6.368-0.432-9.809-1.296 c-3.443-0.858-6.454-2.145-9.039-3.867c-4.125-2.751-7.187-6.106-9.16-10.069c-1.981-3.951-3.227-8.214-3.744-12.777 c-0.514-4.558-0.477-9.205,0.129-13.941c0.604-4.731,1.417-9.157,2.456-13.294c2.231-8.599,5.587-16.729,10.066-24.39 c4.473-7.656,9.808-14.621,16.001-20.907c6.196-6.28,13.122-11.702,20.778-16.266c7.656-4.558,15.788-8.13,24.393-10.712 c4.992-1.549,9.982-2.492,14.975-2.84c4.989-0.337,10.066-0.337,15.229,0c3.783,0.348,7.569,0.606,11.357,0.774 c3.783,0.175,7.484,0.696,11.1,1.55c8.259,1.896,16.521,3.746,24.779,5.548c8.262,1.808,16.521,3.657,24.782,5.554 c4.813,1.206,9.68,2.197,14.582,2.966c4.906,0.774,9.848,1.339,14.846,1.676c11.873,0.521,23.657-0.295,35.36-2.444 c0.39-0.079,0.756-0.206,1.138-0.285c4.727-0.621,11.362-2.36,20.639-6.538c27.024-12.183,72.098-40.303,86.348-40.303 c22.138,0,7.461,37.91,37.325,37.91c20.223,0,133.273-69.529,203.683-69.529c29.681,0,66.867,10.664,105.224,23.93l-0.045,0.303 c0,0,45.429,17.029,84.809,31.413c37.389,13.662,46.172,14.39,60.183,8.336C926.555,110.671,926.081,106.683,921.861,107.721z"></path></svg>