<svg width="300" height="279" viewBox="0 0 300 279" fill="none" xmlns="http://www.w3.org/2000/svg">
<g clip-path="url(#clip0_54_911)">
<mask id="mask0_54_911" style="mask-type:luminance" maskUnits="userSpaceOnUse" x="-51" y="-17" width="440" height="333">
<path d="M-50.6753 315.52H388.695V-16.1623H-50.6753V315.52Z" fill="white"/>
</mask>
<g mask="url(#mask0_54_911)">
<mask id="mask1_54_911" style="mask-type:luminance" maskUnits="userSpaceOnUse" x="-882" y="-91" width="2056" height="2661">
<path d="M-881.913 2569.36H1173.51V-90.6009H-881.913V2569.36Z" fill="white"/>
</mask>
<g mask="url(#mask1_54_911)">
<mask id="mask2_54_911" style="mask-type:luminance" maskUnits="userSpaceOnUse" x="-882" y="-91" width="2056" height="2661">
<path d="M-881.912 2569.36H1173.51V-90.5999H-881.912V2569.36Z" fill="white"/>
</mask>
<g mask="url(#mask2_54_911)">
<mask id="mask3_54_911" style="mask-type:luminance" maskUnits="userSpaceOnUse" x="10" y="9" width="280" height="261">
<path d="M10 269.31H290V9.28198H10V269.31Z" fill="white"/>
</mask>
<g mask="url(#mask3_54_911)">
<path d="M159.772 9.35993C165.624 8.96989 170.916 10.114 176.208 13.1303C176.908 13.5204 179.148 14.8725 179.736 15.3926C180.436 16.0427 185.308 19.865 186.26 21.1132C186.736 21.7112 191.384 27.3278 191.384 27.3278C191.384 27.3278 195.808 22.6213 196.592 21.8153C197.936 20.4891 199.196 19.631 200.176 18.9029C203.032 16.7447 205.944 14.8205 209.22 12.9483C211.516 11.6222 215.464 10.4 217.564 10.114C218.152 10.036 219.72 9.82798 220.42 9.72397C228.4 8.57985 238.732 11.8042 244.584 15.1846C251.052 18.903 255.504 24.3895 258.948 31.2543C259.704 32.7884 261.44 36.8709 261.776 37.885C263.596 43.3195 264.016 50.1843 263.484 56.971C262.672 67.5281 258.136 78.3713 253.292 84.924C252.312 86.2241 250.072 90.0205 247.356 93.2968C238.312 104.114 224.928 117.583 211.46 126.112C207.68 128.505 193.204 136.435 193.204 136.435C193.204 136.435 178.112 128.011 175.704 126.528C160.444 117.063 143.588 103.646 134.18 88.4863C130.904 83.2078 127.124 77.8772 124.968 71.4285C123.96 68.4642 123.064 65.9159 122.364 62.6136C120.712 54.8388 121.216 45.6858 123.428 38.431C124.408 35.2067 125.864 31.7483 127.264 28.992C132.332 19.137 141.74 12.6623 154.116 10.14C156.076 9.74998 157.952 9.46395 159.772 9.35993Z" fill="#EE2722"/>
<path d="M96.5481 9.594C97.2201 9.54199 97.9201 9.88002 98.3961 9.95803C101.952 10.6081 103.436 11.5702 104.836 14.4045C107.86 20.4631 103.996 25.9497 98.7601 27.0938C93.2161 28.29 85.8801 25.4037 83.1081 29.6421C81.2881 32.4244 82.3241 41.0833 82.3521 44.8797C82.3801 49.5342 82.2961 54.0067 82.5761 58.6612C82.7161 60.7934 82.4361 63.2117 82.7161 65.2659C82.9121 66.8261 82.5201 68.4642 82.6601 69.8424C83.0521 73.2747 83.1361 77.2272 83.0241 80.9976C82.8561 86.0681 83.1361 90.6706 83.0801 95.5071C83.0241 98.6534 82.6881 101.904 83.1081 105.076C83.3601 106.766 83.7521 108.768 84.5641 109.939C88.6241 115.633 101.14 108.795 105.424 115.451C105.732 115.945 106.096 116.413 106.292 117.011C106.376 117.323 106.432 117.583 106.516 117.947C107.44 121.874 105.984 125.358 103.576 126.944C103.24 127.152 102.708 127.464 102.4 127.569C99.8521 128.479 95.7361 128.453 92.4041 128.167C87.7841 127.751 83.5001 128.193 79.1881 127.829C75.0721 127.516 70.0601 127.386 65.6081 127.829C61.7161 128.245 57.2081 128.297 53.3441 128.531C51.4961 128.635 49.8161 129.103 47.8001 128.739C45.1961 128.297 42.9281 126.996 41.8081 125.02C39.7081 121.302 40.3801 115.841 43.5441 113.683C44.4121 113.111 45.5321 112.903 46.6801 112.565C52.7001 110.693 60.5121 114.437 63.7041 109.159C65.7481 105.804 64.2081 97.1973 64.5721 92.4648C64.8801 88.2783 64.5441 83.1558 64.4321 79.2294C64.2641 73.2227 64.2081 58.6092 64.2081 58.6092C63.9841 52.4205 64.4321 46.0759 63.9841 40.0692C63.8161 37.651 64.2921 35.4927 63.9841 33.0745C63.8161 31.7743 63.4801 30.4742 62.8921 29.5381C60.4561 25.6637 51.5521 28.0819 46.7081 27.4579C44.3561 27.1718 42.6201 25.8457 41.2201 24.5456C39.4281 22.9074 38.3641 19.007 39.4001 15.8607C39.7081 14.9766 39.9601 14.2485 40.4641 13.5984C41.7241 11.8302 43.7961 10.6601 46.4281 10.2701C48.3321 10.01 50.2641 10.192 52.0561 10.2701C56.6481 10.5041 61.2681 10.4261 65.7201 10.6341C76.0801 11.1542 86.4121 10.4261 96.5481 9.594Z" fill="white"/>
<path d="M202.64 148.839C205.216 148.579 208.688 148.917 210.536 149.905C212.776 151.153 213.784 153.311 214.344 156.276C215.268 161.216 211.964 164.753 208.296 165.793C207.008 166.157 205.132 166.105 203.956 166.287C202.276 166.547 200.12 165.481 198.412 166.417L197.684 167.379C197.516 168.055 197.572 169.069 198.188 169.953C198.188 169.953 201.912 175.882 203.312 178.352C208.352 187.089 213.42 195.774 218.292 204.563C218.936 205.733 219.3 205.915 219.3 205.915C219.3 205.915 221.54 202.821 221.848 202.274C225.124 196.606 228.484 190.963 231.844 185.243C233.244 182.85 234.812 180.51 235.96 177.884C236.212 177.312 240.328 170.317 240.328 170.317L241.028 169.069C241.868 167.353 241.14 166.521 239.46 166.235C238.088 166.001 236.38 166.339 235.288 166.521C233.944 166.703 231.816 166.287 230.472 166.105C225.404 165.403 222.016 160.254 223.808 154.715C224.48 152.635 226.384 150.477 228.54 149.905C233.636 148.553 239.628 150.087 245.116 150.009C251.612 149.905 258.78 149.983 264.744 149.957C270.988 149.931 276.56 148.605 282.944 149.333C285.408 149.619 287.536 151.023 288.684 152.687C289.692 154.117 290.14 156.276 289.972 158.59C289.86 160.072 288.152 163.53 288.152 163.53C283.84 168.913 275.188 165.299 268.328 167.093L266.76 167.327C265.836 167.509 264.268 168.211 263.54 168.731C259.704 171.435 256.988 177.494 254.496 181.654C248.756 191.353 242.344 200.74 236.772 210.569C235.428 212.962 231.592 218.786 231.284 219.332C230.64 220.476 229.604 221.543 229.156 222.869C228.456 224.923 228.904 228.615 228.848 231.112C228.764 235.87 228.148 240.447 228.792 245.075C228.988 246.453 229.744 248.039 230.528 248.897C233.16 251.732 239.684 249.964 243.66 249.99C246.572 249.99 249.12 250.874 250.828 252.148C254.916 255.216 253.852 261.353 250.884 264.629C249.904 265.721 248.392 266.449 247.076 266.839C244.724 267.021 241.476 267.229 240.132 267.125C231.536 266.319 222.156 265.695 213.42 266.345C211.236 266.501 209.024 266.137 206.672 266.449C203.088 266.891 197.348 267.619 193.4 267.125C191.804 266.917 190.096 266.033 189.088 265.175L188.136 264.213C187.212 263.641 186.764 262.263 186.372 261.171C183.824 254.462 189.872 249.574 196.62 250.432C200.68 250.952 205.468 250.848 207.848 248.611C210.256 246.349 209.612 242.319 209.948 238.054C210.2 234.596 209.92 230.878 210.172 227.575C210.256 226.327 210.48 224.949 210.172 223.779C209.864 222.583 208.968 221.751 208.436 220.788C206.504 217.278 203.956 214.106 202.052 210.673C198.552 204.407 194.66 198.53 190.88 192.523C188.92 189.403 187.296 185.919 185.056 182.98C182.732 179.938 180.856 176.35 178.756 173.047C178.14 172.111 177.552 171.435 176.712 170.265C175.956 169.459 174.864 168.913 174.024 168.367C172.792 167.561 171.196 166.573 169.572 166.235C162.404 164.727 153.052 168.315 149.356 162.62C147.032 159.032 147.704 152.895 150.868 150.607C152.212 149.619 154.144 149.307 156.02 149.021C159.968 148.397 164.14 149.515 168.004 149.333C179.68 148.735 191.3 149.983 202.64 148.839Z" fill="white"/>
<path d="M21.0621 147.935C21.7901 147.857 22.2381 148.169 22.8261 148.143C26.8021 148.117 30.8901 148.221 34.6421 148.325C41.0261 148.533 54.4381 147.051 59.1421 149.781C65.8061 153.63 67.7941 160.988 71.0701 168.243C72.5821 171.623 74.2061 175.004 75.6341 178.618C78.0141 184.651 81.3741 190.423 83.3061 196.794C83.8941 198.744 85.2661 200.929 86.1061 202.827C88.3461 207.897 90.3061 212.864 92.4061 217.934C93.4701 220.431 94.9541 223.083 95.9061 225.605C96.7181 227.763 102.878 241.181 102.878 241.181C102.878 241.181 102.794 237.098 102.738 235.876C102.626 232.002 102.822 228.83 103.13 225.007C103.382 221.445 103.186 217.96 103.158 214.528C103.13 211.356 103.466 208.001 103.298 204.959C103.158 202.385 102.962 198.796 103.214 196.222C103.634 191.75 103.298 179.528 103.298 179.528C103.102 177.058 103.438 174.224 103.214 171.727C103.074 170.401 102.598 168.841 101.898 167.879C99.2101 164.213 93.2181 166.085 88.1501 165.695C84.9581 165.461 82.8021 164.369 80.8421 162.939C79.9461 162.262 78.9101 161.274 78.6301 160.026C76.6421 151.029 83.5021 147.779 92.1821 148.429C93.8901 148.559 95.3461 148.273 96.9141 148.611L97.5301 148.793C99.2381 148.533 101.422 149.001 103.074 149.209C106.266 149.599 109.822 149.157 112.902 149.469C113.966 149.573 115.814 149.365 117.046 149.157C117.046 149.157 122.534 149.313 124.466 149.105C129.254 148.611 134.21 147.805 139.082 148.611C141.882 149.079 144.402 151.055 145.382 153.37C147.594 158.726 145.382 162.314 142.022 164.759C137.374 168.087 127.322 164.239 123.122 167.879C122.506 168.399 121.946 169.491 121.666 170.271C121.162 171.727 121.47 174.276 121.582 175.68C121.778 178.488 121.274 181.27 121.442 184.521C121.498 185.691 121.274 193.622 121.442 195.702C121.75 199.836 121.134 203.841 121.442 208.001C121.638 211.018 121.442 215.126 121.218 218.194C121.022 220.743 121.498 222.771 121.302 225.423C120.882 231.014 121.274 236.812 121.078 242.091C120.91 246.381 121.974 253.87 120.63 257.433C120.378 258.083 120.294 258.707 120.126 259.383C119.342 262.555 117.298 264.869 115.03 266.638C111.782 269.16 105.93 270.07 100.722 268.614C96.8301 267.548 93.5261 264.661 91.7341 261.463C87.6181 254.182 84.2021 245.029 81.0381 236.968C78.2101 229.792 74.6821 222.875 71.9381 215.568C71.3221 214.008 70.2861 212.37 69.6981 210.862C68.1021 206.649 66.2541 202.749 64.5461 198.718C62.8381 194.74 61.4381 190.787 59.6461 187.017C58.6661 184.963 54.3541 173.158 53.1501 172.742C52.3101 175.576 53.2901 179.32 53.0941 182.077C52.7581 187.537 53.0661 194.22 52.9821 199.602C52.7581 210.29 52.5341 219.599 52.9821 230.39C53.1781 235.746 51.6661 243.105 53.9621 247.083L54.2421 247.63C59.5341 253.506 71.1821 245.601 76.0821 254.468C78.4901 258.811 76.0541 264.349 72.6101 265.857C70.8181 266.638 68.1301 266.924 65.8901 266.716C64.7701 266.612 63.2021 267.002 62.0821 266.82C60.2901 266.482 58.4701 266.742 56.4261 266.456C52.7581 265.909 49.1461 265.857 45.1421 265.909C41.3341 265.935 38.1701 265.961 34.4181 265.987C33.0741 266.013 31.6741 266.378 30.3581 266.221C24.4221 265.545 15.5461 268.822 12.0741 264.141C10.6181 262.165 9.24606 258.655 10.4781 255.56C11.1221 253.974 11.5421 252.726 12.7181 251.712C14.2021 250.412 16.5541 249.788 19.0181 249.476C20.6421 249.294 22.0421 249.866 23.4981 249.996C27.7261 250.308 32.3741 249.268 33.6901 246.459C34.2501 245.263 34.0541 244.041 34.3061 242.377C34.8101 238.503 34.1661 234.446 34.4741 230.494C34.5581 229.428 34.3621 226.021 34.3621 225.085C34.3901 219.495 34.6421 216.686 34.4181 213.904C33.9421 207.455 34.9501 201.345 34.5581 195.13C34.4181 192.868 34.6701 190.735 34.5301 188.603V187.069C34.5301 182.779 34.9501 178.306 34.4741 174.042C34.2501 172.013 34.6141 170.089 34.1101 168.321C32.1781 161.716 16.1621 168.919 12.8861 162.34C12.2421 161.04 11.2061 159.844 10.8421 158.128C9.80606 152.979 13.7261 149.495 17.2541 148.377C18.5141 147.987 19.8861 148.039 21.0621 147.935Z" fill="white"/>
<path d="M274.376 257.738H275.636C277.12 257.738 277.82 257.296 277.82 256.256C277.82 255.138 277.064 254.67 275.496 254.67H274.376V257.738ZM275.944 253.032C278.968 253.032 280.48 254.072 280.48 256.1C280.48 257.478 279.612 258.519 278.156 258.909L280.536 263.641H277.652L275.636 259.299H274.376V263.641H271.8V253.032H275.944ZM270.232 252.798C268.664 254.358 267.796 256.412 267.796 258.493C267.796 260.599 268.608 262.575 270.092 264.083C271.604 265.617 273.648 266.501 275.748 266.501C277.82 266.501 279.808 265.643 281.404 264.161C282.888 262.705 283.728 260.703 283.728 258.675C283.728 256.386 282.972 254.462 281.46 252.928C279.92 251.368 277.988 250.536 275.776 250.536C273.62 250.536 271.716 251.316 270.232 252.798ZM282.608 251.836C284.372 253.604 285.296 255.97 285.296 258.519C285.296 261.171 284.316 263.537 282.496 265.279C280.62 267.099 278.212 268.062 275.748 268.062C273.2 268.062 270.792 267.047 268.972 265.175C267.18 263.355 266.228 261.015 266.228 258.519C266.228 256.828 266.676 255.164 267.628 253.578C269.336 250.666 272.304 248.976 275.748 248.976C278.38 248.976 280.76 249.964 282.608 251.836Z" fill="white"/>
</g>
</g>
</g>
</g>
</g>
<defs>
<clipPath id="clip0_54_911">
<rect width="300" height="278.59" fill="white"/>
</clipPath>
</defs>
</svg>
