<svg preserveAspectRatio="none" width="100%" height="100%" overflow="visible" style="display: block;" viewBox="0 0 16 16" fill="none" xmlns="http://www.w3.org/2000/svg">
<g id="share">
<mask id="mask0_0_27" style="mask-type:alpha" maskUnits="userSpaceOnUse" x="0" y="0" width="16" height="16">
<rect id="Bounding box" width="16" height="16" fill="var(--fill-0, #D9D9D9)"/>
</mask>
<g mask="url(#mask0_0_27)">
<path id="share_2" d="M11.3333 14.6667C10.7778 14.6667 10.3056 14.4722 9.91667 14.0833C9.52778 13.6944 9.33333 13.2222 9.33333 12.6667C9.33333 12.6 9.35 12.4444 9.38333 12.2L4.7 9.46667C4.52222 9.63333 4.31667 9.76389 4.08333 9.85833C3.85 9.95278 3.6 10 3.33333 10C2.77778 10 2.30556 9.80556 1.91667 9.41667C1.52778 9.02778 1.33333 8.55556 1.33333 8C1.33333 7.44444 1.52778 6.97222 1.91667 6.58333C2.30556 6.19444 2.77778 6 3.33333 6C3.6 6 3.85 6.04722 4.08333 6.14167C4.31667 6.23611 4.52222 6.36667 4.7 6.53333L9.38333 3.8C9.36111 3.72222 9.34722 3.64722 9.34167 3.575C9.33611 3.50278 9.33333 3.42222 9.33333 3.33333C9.33333 2.77778 9.52778 2.30556 9.91667 1.91667C10.3056 1.52778 10.7778 1.33333 11.3333 1.33333C11.8889 1.33333 12.3611 1.52778 12.75 1.91667C13.1389 2.30556 13.3333 2.77778 13.3333 3.33333C13.3333 3.88889 13.1389 4.36111 12.75 4.75C12.3611 5.13889 11.8889 5.33333 11.3333 5.33333C11.0667 5.33333 10.8167 5.28611 10.5833 5.19167C10.35 5.09722 10.1444 4.96667 9.96667 4.8L5.28333 7.53333C5.30556 7.61111 5.31944 7.68611 5.325 7.75833C5.33056 7.83056 5.33333 7.91111 5.33333 8C5.33333 8.08889 5.33056 8.16944 5.325 8.24167C5.31944 8.31389 5.30556 8.38889 5.28333 8.46667L9.96667 11.2C10.1444 11.0333 10.35 10.9028 10.5833 10.8083C10.8167 10.7139 11.0667 10.6667 11.3333 10.6667C11.8889 10.6667 12.3611 10.8611 12.75 11.25C13.1389 11.6389 13.3333 12.1111 13.3333 12.6667C13.3333 13.2222 13.1389 13.6944 12.75 14.0833C12.3611 14.4722 11.8889 14.6667 11.3333 14.6667ZM11.3333 13.3333C11.5222 13.3333 11.6806 13.2694 11.8083 13.1417C11.9361 13.0139 12 12.8556 12 12.6667C12 12.4778 11.9361 12.3194 11.8083 12.1917C11.6806 12.0639 11.5222 12 11.3333 12C11.1444 12 10.9861 12.0639 10.8583 12.1917C10.7306 12.3194 10.6667 12.4778 10.6667 12.6667C10.6667 12.8556 10.7306 13.0139 10.8583 13.1417C10.9861 13.2694 11.1444 13.3333 11.3333 13.3333ZM3.33333 8.66667C3.52222 8.66667 3.68056 8.60278 3.80833 8.475C3.93611 8.34722 4 8.18889 4 8C4 7.81111 3.93611 7.65278 3.80833 7.525C3.68056 7.39722 3.52222 7.33333 3.33333 7.33333C3.14444 7.33333 2.98611 7.39722 2.85833 7.525C2.73056 7.65278 2.66667 7.81111 2.66667 8C2.66667 8.18889 2.73056 8.34722 2.85833 8.475C2.98611 8.60278 3.14444 8.66667 3.33333 8.66667ZM11.3333 4C11.5222 4 11.6806 3.93611 11.8083 3.80833C11.9361 3.68056 12 3.52222 12 3.33333C12 3.14444 11.9361 2.98611 11.8083 2.85833C11.6806 2.73056 11.5222 2.66667 11.3333 2.66667C11.1444 2.66667 10.9861 2.73056 10.8583 2.85833C10.7306 2.98611 10.6667 3.14444 10.6667 3.33333C10.6667 3.52222 10.7306 3.68056 10.8583 3.80833C10.9861 3.93611 11.1444 4 11.3333 4Z" fill="var(--fill-0, #1C1B1F)"/>
</g>
</g>
</svg>
