<svg width="341" height="45" viewBox="0 0 341 45" fill="none" xmlns="http://www.w3.org/2000/svg">
<g clip-path="url(#clip0_78_1619)">
<path d="M253.429 0C261.361 8.14951e-05 277.399 9.4498 294.813 19.5703C302.586 23.9528 313.521 29.9276 322.081 33.8623C325.6 35.4828 324.665 36.0668 334.67 41.5713C337.449 43.1003 338.828 43.8478 339.522 44.4775C340.363 44.727 340.813 44.8515 340.827 44.8555V46.9189C341.037 46.9109 341.001 46.9943 340.827 47.127V97.8262H10.957L10.6963 96.0225C9.96123 95.7967 9.23784 95.5323 8.52734 95.2266C6.16865 94.2165 4.31666 92.6611 2.9707 90.5674C1.55549 88.3571 0.662392 86.0367 0.291992 83.6045C-0.0791485 81.1718 -0.0970329 78.7038 0.241211 76.2061C0.577111 73.7045 1.20054 71.2552 2.11035 68.8555C3.01903 66.458 4.08106 64.2243 5.29395 62.1572C7.31565 58.8244 9.6729 55.7266 12.3691 52.8594C15.0622 49.9942 18.0107 47.3938 21.21 45.0615C24.41 42.7272 27.7799 40.6803 31.3154 38.9111C34.8542 37.1481 38.4749 35.6993 42.1797 34.5645C44.3364 33.8991 46.5926 33.3496 48.9521 32.915C51.3088 32.4825 53.6669 32.2315 56.0264 32.1641C60.7408 32.0293 65.5586 32.1484 70.4766 32.5137C75.3941 32.8813 80.1444 33.7995 84.7256 35.2646C87.0823 35.9974 89.4404 36.5459 91.7998 36.9111C94.1563 37.2802 96.5152 37.6292 98.874 37.9639C100.625 38.2311 102.376 38.4128 104.13 38.5127C105.881 38.6126 107.631 38.5625 109.383 38.3623C110.649 38.2113 111.937 37.9375 113.24 37.5986C120.377 35.0888 141.459 20.6932 149.99 20.3809C165.913 19.7949 166.898 34.1621 170.434 34.1621C177.088 34.1606 236.295 0 253.429 0Z" fill="white"/>
</g>
<defs>
<clipPath id="clip0_78_1619">
<rect width="341" height="45" fill="white"/>
</clipPath>
</defs>
</svg>
